<?xml version="1.0" encoding="UTF-8"?>
<svg xmlns="http://www.w3.org/2000/svg" viewBox="0 0 550 400" width="550" height="400">
<defs>
  <filter id="textshadow" x="-20%" y="-20%" width="140%" height="140%">
    <feFlood flood-color="white" flood-opacity="0.9" result="bg"/>
    <feMorphology in="SourceGraphic" operator="dilate" radius="1.5" result="dilated"/>
    <feComposite in="bg" in2="dilated" operator="in" result="shadow"/>
    <feMerge><feMergeNode in="shadow"/><feMergeNode in="SourceGraphic"/></feMerge>
  </filter>
  <style>
    .title { font: bold 16px "SF Mono", Consolas, monospace; fill: #1a1a1a; filter: url(#textshadow); }
    .subtitle { font: 11px "SF Mono", Consolas, monospace; fill: #555; filter: url(#textshadow); }
    .label { font: bold 10px "SF Mono", Consolas, monospace; fill: #1a1a1a; filter: url(#textshadow); }
    .value { font: 9px "SF Mono", Consolas, monospace; fill: #555; filter: url(#textshadow); }
    .pin { font: 8px "SF Mono", Consolas, monospace; fill: #555; filter: url(#textshadow); }
    .anno { font: 9px "SF Mono", Consolas, monospace; fill: #0066CC; filter: url(#textshadow); }
    .wire { stroke: #1a1a1a; stroke-width: 1.5; fill: none; transition: all 0.2s; cursor: pointer; }
    .wire:hover { stroke: #ff6600; stroke-width: 2.5; filter: drop-shadow(0 0 3px #ff6600); }
    .wire-thick { stroke: #1a1a1a; stroke-width: 2.5; fill: none; transition: all 0.2s; cursor: pointer; }
    .wire-thick:hover { stroke: #ff6600; stroke-width: 3.5; filter: drop-shadow(0 0 3px #ff6600); }
    .component { stroke: #1a1a1a; stroke-width: 1.5; fill: none; }
    .filled { fill: #1a1a1a; }
    .junction { fill: #0066CC; }
  </style>
  <marker id="arrow" markerWidth="8" markerHeight="6" refX="7" refY="3" orient="auto">
    <polygon points="0 0, 8 3, 0 6" fill="#0066CC"/>
  </marker>
</defs>
<rect width="550" height="400" fill="#FEFEFE"/>
<text x="275" y="25" class="title" text-anchor="middle">Attenuverter</text>
<text x="275" y="42" class="subtitle" text-anchor="middle">Center-Detent Pot for -1x to +1x</text>
<circle cx="50" cy="150" r="8" class="component"/>
<line x1="50" y1="150" x2="70" y2="150" class="wire"/>
<text x="50" y="172" class="label" text-anchor="middle">IN</text>
<line x1="70" y1="150" x2="100" y2="150" class="wire"/>
<path d="M100,150 l5,-6 l5,6 l5,-6 l5,6 l5,-6 l5,6 l5,-6 l5,6 l5,0" class="component"/>
<text x="125" y="132" class="label" text-anchor="middle">R1</text>
<text x="125" y="172" class="value" text-anchor="middle">100k</text>
<line x1="150" y1="150" x2="180" y2="150" class="wire"/>
<path d="M200,150 l5,-8 l5,8 l5,-8 l5,8 l5,-8 l5,8" class="component"/>
<line x1="220" y1="120" x2="220" y2="140" class="wire"/>
<polygon points="220,140 216,132 224,132" class="filled"/>
<text x="220" y="115" class="label" text-anchor="middle">Atten</text>
<text x="220" y="170" class="value" text-anchor="middle">100k center</text>
<line x1="220" y1="120" x2="220" y2="100" class="wire"/>
<line x1="220" y1="100" x2="350" y2="100" class="wire"/>
<line x1="220" y1="180" x2="220" y2="250" class="wire"/>
<line x1="220" y1="250" x2="180" y2="250" class="wire"/>
<line x1="180" y1="250" x2="180" y2="262" class="wire"/>
<line x1="170" y1="262" x2="190" y2="262" class="wire" stroke-width="2"/>
<line x1="174" y1="266" x2="186" y2="266" class="wire" stroke-width="1.5"/>
<line x1="150" y1="150" x2="150" y2="280" class="wire"/>
<line x1="150" y1="280" x2="120" y2="280" class="wire"/>
<line x1="120" y1="280" x2="120" y2="250" class="wire"/>
<line x1="120" y1="250" x2="120" y2="200" class="wire"/>
<polygon points="370,150 370,210 430,180" class="component"/>
<text x="400" y="185" class="label" text-anchor="middle" font-size="9">TL072</text>
<text x="367" y="162" class="pin" text-anchor="end">-</text>
<text x="367" y="198" class="pin" text-anchor="end">+</text>
<line x1="400" y1="150" x2="400" y2="140" class="component"/>
<text x="405" y="145" class="pin" font-size="7">V+</text>
<line x1="400" y1="210" x2="400" y2="220" class="component"/>
<text x="405" y="218" class="pin" font-size="7">V-</text>
<line x1="350" y1="100" x2="350" y2="162" class="wire"/>
<line x1="350" y1="162" x2="370" y2="162" class="wire"/>
<line x1="370" y1="198" x2="370" y2="300" class="wire"/>
<line x1="370" y1="300" x2="370" y2="312" class="wire"/>
<line x1="360" y1="312" x2="380" y2="312" class="wire" stroke-width="2"/>
<line x1="364" y1="316" x2="376" y2="316" class="wire" stroke-width="1.5"/>
<line x1="430" y1="180" x2="480" y2="180" class="wire"/>
<line x1="480" y1="180" x2="480" y2="100" class="wire"/>
<line x1="480" y1="100" x2="350" y2="100" class="wire"/>
<path d="M390,100 l5,-6 l5,6 l5,-6 l5,6 l5,-6 l5,6 l5,-6 l5,6 l5,0" class="component"/>
<text x="415" y="82" class="label" text-anchor="middle">Rf</text>
<text x="415" y="122" class="value" text-anchor="middle">100k</text>
<line x1="430" y1="180" x2="480" y2="180" class="wire"/>
<circle cx="500" cy="180" r="8" class="component"/>
<line x1="500" y1="180" x2="520" y2="180" class="wire"/>
<text x="500" y="202" class="label" text-anchor="middle">OUT</text></svg>