<svg xmlns="http://www.w3.org/2000/svg" viewBox="0 0 510 495" width="510" height="495">
<defs>
  <style>
    text { font-family: "SF Mono", Consolas, "Liberation Mono", monospace; }
    .title { font-size: 16px; font-weight: bold; fill: #222; }
    .subtitle { font-size: 11px; fill: #555; }
    .row-label { font-size: 11px; fill: #444; font-weight: bold; text-anchor: end; dominant-baseline: central; }
    .col-label { font-size: 11px; fill: #444; font-weight: bold; text-anchor: middle; }
    .ic-name { font-size: 12px; fill: #FFF; text-anchor: middle; font-weight: bold; dominant-baseline: central; }
    .ic-type { font-size: 10px; fill: #DDD; text-anchor: middle; dominant-baseline: central; }
    .pin { font-size: 9px; fill: #222; font-weight: bold; text-anchor: middle; dominant-baseline: central; filter: url(#textshadow); }
    .comp { font-size: 9px; fill: #111; font-weight: bold; text-anchor: middle; dominant-baseline: central; filter: url(#textshadow); }
    .rail { font-size: 11px; fill: #FFF; font-weight: bold; dominant-baseline: central; }
    .cut-x { stroke: #FF0000; stroke-width: 2.5; stroke-linecap: round; }
    .legend-text { font-size: 10px; fill: #333; dominant-baseline: central; }
    .legend-title { font-size: 11px; fill: #222; font-weight: bold; dominant-baseline: central; }
    .zone-label { font-size: 10px; fill: #444; font-weight: bold; font-style: italic; dominant-baseline: central; filter: url(#textshadow); }
    .note { font-size: 9px; fill: #222; dominant-baseline: central; filter: url(#textshadow); }
  </style>
  <filter id="textshadow" x="-5%" y="-5%" width="110%" height="110%">
    <feFlood flood-color="white" flood-opacity="0.85" result="bg"/>
    <feMorphology in="SourceGraphic" operator="dilate" radius="2" result="dilated"/>
    <feComposite in="bg" in2="dilated" operator="in" result="shadow"/>
    <feMerge><feMergeNode in="shadow"/><feMergeNode in="SourceGraphic"/></feMerge>
  </filter>
  <marker id="arrowhead" markerWidth="6" markerHeight="4" refX="6" refY="2" orient="auto">
    <polygon points="0 0, 6 2, 0 4" fill="#CC0000"/>
  </marker>
</defs>
<rect width="510" height="495" fill="#F5F5F0"/>
<text x="255" y="20" class="title" text-anchor="middle">M08 — Sub-Harmonic Divider Stripboard</text>
<text x="255" y="36" class="subtitle" text-anchor="middle">Component side (top view) — Copper tracks run horizontally</text>
<rect x="82" y="47" width="406" height="316" fill="#E8D5A3" rx="4" stroke="#B8A070" stroke-width="1.5"/>
<rect x="86" y="58" width="398" height="24" fill="#CD853F" opacity="0.25" rx="2"/>
<rect x="86" y="88" width="398" height="24" fill="#CD853F" opacity="0.25" rx="2"/>
<rect x="86" y="118" width="398" height="24" fill="#CD853F" opacity="0.25" rx="2"/>
<rect x="86" y="148" width="398" height="24" fill="#CD853F" opacity="0.25" rx="2"/>
<rect x="86" y="178" width="398" height="24" fill="#CD853F" opacity="0.25" rx="2"/>
<rect x="86" y="208" width="398" height="24" fill="#CD853F" opacity="0.25" rx="2"/>
<rect x="86" y="238" width="398" height="24" fill="#CD853F" opacity="0.25" rx="2"/>
<rect x="86" y="268" width="398" height="24" fill="#CD853F" opacity="0.25" rx="2"/>
<rect x="86" y="298" width="398" height="24" fill="#CD853F" opacity="0.25" rx="2"/>
<rect x="86" y="328" width="398" height="24" fill="#CD853F" opacity="0.25" rx="2"/>
<circle cx="105" cy="70" r="4" fill="#444" opacity="0.5"/>
<circle cx="135" cy="70" r="4" fill="#444" opacity="0.5"/>
<circle cx="165" cy="70" r="4" fill="#444" opacity="0.5"/>
<circle cx="195" cy="70" r="4" fill="#444" opacity="0.5"/>
<circle cx="225" cy="70" r="4" fill="#444" opacity="0.5"/>
<circle cx="255" cy="70" r="4" fill="#444" opacity="0.5"/>
<circle cx="285" cy="70" r="4" fill="#444" opacity="0.5"/>
<circle cx="315" cy="70" r="4" fill="#444" opacity="0.5"/>
<circle cx="345" cy="70" r="4" fill="#444" opacity="0.5"/>
<circle cx="375" cy="70" r="4" fill="#444" opacity="0.5"/>
<circle cx="405" cy="70" r="4" fill="#444" opacity="0.5"/>
<circle cx="435" cy="70" r="4" fill="#444" opacity="0.5"/>
<circle cx="465" cy="70" r="4" fill="#444" opacity="0.5"/>
<circle cx="105" cy="100" r="4" fill="#444" opacity="0.5"/>
<circle cx="135" cy="100" r="4" fill="#444" opacity="0.5"/>
<circle cx="165" cy="100" r="4" fill="#444" opacity="0.5"/>
<circle cx="195" cy="100" r="4" fill="#444" opacity="0.5"/>
<circle cx="225" cy="100" r="4" fill="#444" opacity="0.5"/>
<circle cx="255" cy="100" r="4" fill="#444" opacity="0.5"/>
<circle cx="285" cy="100" r="4" fill="#444" opacity="0.5"/>
<circle cx="315" cy="100" r="4" fill="#444" opacity="0.5"/>
<circle cx="345" cy="100" r="4" fill="#444" opacity="0.5"/>
<circle cx="375" cy="100" r="4" fill="#444" opacity="0.5"/>
<circle cx="405" cy="100" r="4" fill="#444" opacity="0.5"/>
<circle cx="435" cy="100" r="4" fill="#444" opacity="0.5"/>
<circle cx="465" cy="100" r="4" fill="#444" opacity="0.5"/>
<circle cx="105" cy="130" r="4" fill="#444" opacity="0.5"/>
<circle cx="135" cy="130" r="4" fill="#444" opacity="0.5"/>
<circle cx="165" cy="130" r="4" fill="#444" opacity="0.5"/>
<circle cx="195" cy="130" r="4" fill="#444" opacity="0.5"/>
<circle cx="225" cy="130" r="4" fill="#444" opacity="0.5"/>
<circle cx="255" cy="130" r="4" fill="#444" opacity="0.5"/>
<circle cx="285" cy="130" r="4" fill="#444" opacity="0.5"/>
<circle cx="315" cy="130" r="4" fill="#444" opacity="0.5"/>
<circle cx="345" cy="130" r="4" fill="#444" opacity="0.5"/>
<circle cx="375" cy="130" r="4" fill="#444" opacity="0.5"/>
<circle cx="405" cy="130" r="4" fill="#444" opacity="0.5"/>
<circle cx="435" cy="130" r="4" fill="#444" opacity="0.5"/>
<circle cx="465" cy="130" r="4" fill="#444" opacity="0.5"/>
<circle cx="105" cy="160" r="4" fill="#444" opacity="0.5"/>
<circle cx="135" cy="160" r="4" fill="#444" opacity="0.5"/>
<circle cx="165" cy="160" r="4" fill="#444" opacity="0.5"/>
<circle cx="195" cy="160" r="4" fill="#444" opacity="0.5"/>
<circle cx="225" cy="160" r="4" fill="#444" opacity="0.5"/>
<circle cx="255" cy="160" r="4" fill="#444" opacity="0.5"/>
<circle cx="285" cy="160" r="4" fill="#444" opacity="0.5"/>
<circle cx="315" cy="160" r="4" fill="#444" opacity="0.5"/>
<circle cx="345" cy="160" r="4" fill="#444" opacity="0.5"/>
<circle cx="375" cy="160" r="4" fill="#444" opacity="0.5"/>
<circle cx="405" cy="160" r="4" fill="#444" opacity="0.5"/>
<circle cx="435" cy="160" r="4" fill="#444" opacity="0.5"/>
<circle cx="465" cy="160" r="4" fill="#444" opacity="0.5"/>
<circle cx="105" cy="190" r="4" fill="#444" opacity="0.5"/>
<circle cx="135" cy="190" r="4" fill="#444" opacity="0.5"/>
<circle cx="165" cy="190" r="4" fill="#444" opacity="0.5"/>
<circle cx="195" cy="190" r="4" fill="#444" opacity="0.5"/>
<circle cx="225" cy="190" r="4" fill="#444" opacity="0.5"/>
<circle cx="255" cy="190" r="4" fill="#444" opacity="0.5"/>
<circle cx="285" cy="190" r="4" fill="#444" opacity="0.5"/>
<circle cx="315" cy="190" r="4" fill="#444" opacity="0.5"/>
<circle cx="345" cy="190" r="4" fill="#444" opacity="0.5"/>
<circle cx="375" cy="190" r="4" fill="#444" opacity="0.5"/>
<circle cx="405" cy="190" r="4" fill="#444" opacity="0.5"/>
<circle cx="435" cy="190" r="4" fill="#444" opacity="0.5"/>
<circle cx="465" cy="190" r="4" fill="#444" opacity="0.5"/>
<circle cx="105" cy="220" r="4" fill="#444" opacity="0.5"/>
<circle cx="135" cy="220" r="4" fill="#444" opacity="0.5"/>
<circle cx="165" cy="220" r="4" fill="#444" opacity="0.5"/>
<circle cx="195" cy="220" r="4" fill="#444" opacity="0.5"/>
<circle cx="225" cy="220" r="4" fill="#444" opacity="0.5"/>
<circle cx="255" cy="220" r="4" fill="#444" opacity="0.5"/>
<circle cx="285" cy="220" r="4" fill="#444" opacity="0.5"/>
<circle cx="315" cy="220" r="4" fill="#444" opacity="0.5"/>
<circle cx="345" cy="220" r="4" fill="#444" opacity="0.5"/>
<circle cx="375" cy="220" r="4" fill="#444" opacity="0.5"/>
<circle cx="405" cy="220" r="4" fill="#444" opacity="0.5"/>
<circle cx="435" cy="220" r="4" fill="#444" opacity="0.5"/>
<circle cx="465" cy="220" r="4" fill="#444" opacity="0.5"/>
<circle cx="105" cy="250" r="4" fill="#444" opacity="0.5"/>
<circle cx="135" cy="250" r="4" fill="#444" opacity="0.5"/>
<circle cx="165" cy="250" r="4" fill="#444" opacity="0.5"/>
<circle cx="195" cy="250" r="4" fill="#444" opacity="0.5"/>
<circle cx="225" cy="250" r="4" fill="#444" opacity="0.5"/>
<circle cx="255" cy="250" r="4" fill="#444" opacity="0.5"/>
<circle cx="285" cy="250" r="4" fill="#444" opacity="0.5"/>
<circle cx="315" cy="250" r="4" fill="#444" opacity="0.5"/>
<circle cx="345" cy="250" r="4" fill="#444" opacity="0.5"/>
<circle cx="375" cy="250" r="4" fill="#444" opacity="0.5"/>
<circle cx="405" cy="250" r="4" fill="#444" opacity="0.5"/>
<circle cx="435" cy="250" r="4" fill="#444" opacity="0.5"/>
<circle cx="465" cy="250" r="4" fill="#444" opacity="0.5"/>
<circle cx="105" cy="280" r="4" fill="#444" opacity="0.5"/>
<circle cx="135" cy="280" r="4" fill="#444" opacity="0.5"/>
<circle cx="165" cy="280" r="4" fill="#444" opacity="0.5"/>
<circle cx="195" cy="280" r="4" fill="#444" opacity="0.5"/>
<circle cx="225" cy="280" r="4" fill="#444" opacity="0.5"/>
<circle cx="255" cy="280" r="4" fill="#444" opacity="0.5"/>
<circle cx="285" cy="280" r="4" fill="#444" opacity="0.5"/>
<circle cx="315" cy="280" r="4" fill="#444" opacity="0.5"/>
<circle cx="345" cy="280" r="4" fill="#444" opacity="0.5"/>
<circle cx="375" cy="280" r="4" fill="#444" opacity="0.5"/>
<circle cx="405" cy="280" r="4" fill="#444" opacity="0.5"/>
<circle cx="435" cy="280" r="4" fill="#444" opacity="0.5"/>
<circle cx="465" cy="280" r="4" fill="#444" opacity="0.5"/>
<circle cx="105" cy="310" r="4" fill="#444" opacity="0.5"/>
<circle cx="135" cy="310" r="4" fill="#444" opacity="0.5"/>
<circle cx="165" cy="310" r="4" fill="#444" opacity="0.5"/>
<circle cx="195" cy="310" r="4" fill="#444" opacity="0.5"/>
<circle cx="225" cy="310" r="4" fill="#444" opacity="0.5"/>
<circle cx="255" cy="310" r="4" fill="#444" opacity="0.5"/>
<circle cx="285" cy="310" r="4" fill="#444" opacity="0.5"/>
<circle cx="315" cy="310" r="4" fill="#444" opacity="0.5"/>
<circle cx="345" cy="310" r="4" fill="#444" opacity="0.5"/>
<circle cx="375" cy="310" r="4" fill="#444" opacity="0.5"/>
<circle cx="405" cy="310" r="4" fill="#444" opacity="0.5"/>
<circle cx="435" cy="310" r="4" fill="#444" opacity="0.5"/>
<circle cx="465" cy="310" r="4" fill="#444" opacity="0.5"/>
<circle cx="105" cy="340" r="4" fill="#444" opacity="0.5"/>
<circle cx="135" cy="340" r="4" fill="#444" opacity="0.5"/>
<circle cx="165" cy="340" r="4" fill="#444" opacity="0.5"/>
<circle cx="195" cy="340" r="4" fill="#444" opacity="0.5"/>
<circle cx="225" cy="340" r="4" fill="#444" opacity="0.5"/>
<circle cx="255" cy="340" r="4" fill="#444" opacity="0.5"/>
<circle cx="285" cy="340" r="4" fill="#444" opacity="0.5"/>
<circle cx="315" cy="340" r="4" fill="#444" opacity="0.5"/>
<circle cx="345" cy="340" r="4" fill="#444" opacity="0.5"/>
<circle cx="375" cy="340" r="4" fill="#444" opacity="0.5"/>
<circle cx="405" cy="340" r="4" fill="#444" opacity="0.5"/>
<circle cx="435" cy="340" r="4" fill="#444" opacity="0.5"/>
<circle cx="465" cy="340" r="4" fill="#444" opacity="0.5"/>
<text x="76" y="70" class="row-label">1</text>
<text x="76" y="100" class="row-label">2</text>
<text x="76" y="130" class="row-label">3</text>
<text x="76" y="160" class="row-label">4</text>
<text x="76" y="190" class="row-label">5</text>
<text x="76" y="220" class="row-label">6</text>
<text x="76" y="250" class="row-label">7</text>
<text x="76" y="280" class="row-label">8</text>
<text x="76" y="310" class="row-label">9</text>
<text x="76" y="340" class="row-label">10</text>
<text x="105" y="41" class="col-label">1</text>
<text x="135" y="41" class="col-label">2</text>
<text x="165" y="41" class="col-label">3</text>
<text x="195" y="41" class="col-label">4</text>
<text x="225" y="41" class="col-label">5</text>
<text x="255" y="41" class="col-label">6</text>
<text x="285" y="41" class="col-label">7</text>
<text x="315" y="41" class="col-label">8</text>
<text x="345" y="41" class="col-label">9</text>
<text x="375" y="41" class="col-label">10</text>
<text x="405" y="41" class="col-label">11</text>
<text x="435" y="41" class="col-label">12</text>
<text x="465" y="41" class="col-label">13</text>
<rect x="86" y="57" width="398" height="26" fill="#D84" opacity="0.7" rx="3"/>
<text x="94" y="70" class="rail">+5V</text>
<rect x="86" y="87" width="398" height="26" fill="#4A4" opacity="0.7" rx="3"/>
<text x="94" y="100" class="rail">GND</text>
<rect x="213" y="118" width="114" height="204" fill="#2D2D2D" rx="3"/>
<circle cx="270" cy="120" r="5" fill="#555"/>
<text x="270" y="214" class="ic-name">U1</text>
<text x="270" y="228" class="ic-type">74HC74</text>
<line x1="212" y1="130" x2="210" y2="130" stroke="#CD853F" stroke-width="2" opacity="0.6"/>
<circle cx="225" cy="130" r="3" fill="#FFA500" stroke="#C80" stroke-width="0.5"/>
<text x="212" y="130" class="pin">1</text>
<text x="199" y="130" class="note" text-anchor="end">1CLR</text>
<line x1="328" y1="130" x2="330" y2="130" stroke="#CD853F" stroke-width="2" opacity="0.6"/>
<circle cx="315" cy="130" r="3" fill="#FFA500" stroke="#C80" stroke-width="0.5"/>
<text x="328" y="130" class="pin">14</text>
<text x="341" y="130" class="note">VCC</text>
<line x1="212" y1="160" x2="210" y2="160" stroke="#CD853F" stroke-width="2" opacity="0.6"/>
<circle cx="225" cy="160" r="3" fill="#FFA500" stroke="#C80" stroke-width="0.5"/>
<text x="212" y="160" class="pin">2</text>
<text x="199" y="160" class="note" text-anchor="end">1D</text>
<line x1="328" y1="160" x2="330" y2="160" stroke="#CD853F" stroke-width="2" opacity="0.6"/>
<circle cx="315" cy="160" r="3" fill="#FFA500" stroke="#C80" stroke-width="0.5"/>
<text x="328" y="160" class="pin">13</text>
<text x="341" y="160" class="note">2CLR</text>
<line x1="212" y1="190" x2="210" y2="190" stroke="#CD853F" stroke-width="2" opacity="0.6"/>
<circle cx="225" cy="190" r="3" fill="#FFA500" stroke="#C80" stroke-width="0.5"/>
<text x="212" y="190" class="pin">3</text>
<text x="199" y="190" class="note" text-anchor="end">1CLK</text>
<line x1="328" y1="190" x2="330" y2="190" stroke="#CD853F" stroke-width="2" opacity="0.6"/>
<circle cx="315" cy="190" r="3" fill="#FFA500" stroke="#C80" stroke-width="0.5"/>
<text x="328" y="190" class="pin">12</text>
<text x="341" y="190" class="note">2D</text>
<line x1="212" y1="220" x2="210" y2="220" stroke="#CD853F" stroke-width="2" opacity="0.6"/>
<circle cx="225" cy="220" r="3" fill="#FFA500" stroke="#C80" stroke-width="0.5"/>
<text x="212" y="220" class="pin">4</text>
<text x="199" y="220" class="note" text-anchor="end">1PRE</text>
<line x1="328" y1="220" x2="330" y2="220" stroke="#CD853F" stroke-width="2" opacity="0.6"/>
<circle cx="315" cy="220" r="3" fill="#FFA500" stroke="#C80" stroke-width="0.5"/>
<text x="328" y="220" class="pin">11</text>
<text x="341" y="220" class="note">2CLK</text>
<line x1="212" y1="250" x2="210" y2="250" stroke="#CD853F" stroke-width="2" opacity="0.6"/>
<circle cx="225" cy="250" r="3" fill="#FFA500" stroke="#C80" stroke-width="0.5"/>
<text x="212" y="250" class="pin">5</text>
<text x="199" y="250" class="note" text-anchor="end">1Q</text>
<line x1="328" y1="250" x2="330" y2="250" stroke="#CD853F" stroke-width="2" opacity="0.6"/>
<circle cx="315" cy="250" r="3" fill="#FFA500" stroke="#C80" stroke-width="0.5"/>
<text x="328" y="250" class="pin">10</text>
<text x="341" y="250" class="note">2PRE</text>
<line x1="212" y1="280" x2="210" y2="280" stroke="#CD853F" stroke-width="2" opacity="0.6"/>
<circle cx="225" cy="280" r="3" fill="#FFA500" stroke="#C80" stroke-width="0.5"/>
<text x="212" y="280" class="pin">6</text>
<text x="199" y="280" class="note" text-anchor="end">1Q'</text>
<line x1="328" y1="280" x2="330" y2="280" stroke="#CD853F" stroke-width="2" opacity="0.6"/>
<circle cx="315" cy="280" r="3" fill="#FFA500" stroke="#C80" stroke-width="0.5"/>
<text x="328" y="280" class="pin">9</text>
<text x="341" y="280" class="note">2Q</text>
<line x1="212" y1="310" x2="210" y2="310" stroke="#CD853F" stroke-width="2" opacity="0.6"/>
<circle cx="225" cy="310" r="3" fill="#FFA500" stroke="#C80" stroke-width="0.5"/>
<text x="212" y="310" class="pin">7</text>
<text x="199" y="310" class="note" text-anchor="end">GND</text>
<line x1="328" y1="310" x2="330" y2="310" stroke="#CD853F" stroke-width="2" opacity="0.6"/>
<circle cx="315" cy="310" r="3" fill="#FFA500" stroke="#C80" stroke-width="0.5"/>
<text x="328" y="310" class="pin">8</text>
<text x="341" y="310" class="note">2Q'</text>
<line x1="280" y1="125" x2="290" y2="135" class="cut-x"/>
<line x1="290" y1="125" x2="280" y2="135" class="cut-x"/>
<line x1="280" y1="155" x2="290" y2="165" class="cut-x"/>
<line x1="290" y1="155" x2="280" y2="165" class="cut-x"/>
<line x1="280" y1="185" x2="290" y2="195" class="cut-x"/>
<line x1="290" y1="185" x2="280" y2="195" class="cut-x"/>
<line x1="280" y1="215" x2="290" y2="225" class="cut-x"/>
<line x1="290" y1="215" x2="280" y2="225" class="cut-x"/>
<line x1="280" y1="245" x2="290" y2="255" class="cut-x"/>
<line x1="290" y1="245" x2="280" y2="255" class="cut-x"/>
<line x1="280" y1="275" x2="290" y2="285" class="cut-x"/>
<line x1="290" y1="275" x2="280" y2="285" class="cut-x"/>
<line x1="280" y1="305" x2="290" y2="315" class="cut-x"/>
<line x1="290" y1="305" x2="280" y2="315" class="cut-x"/>
<path d="M345,70 Q375,52 345,130" fill="none" stroke="#0066CC" stroke-width="2.5" stroke-linecap="round" stroke-dasharray="6,3"/>
<circle cx="345" cy="70" r="4" fill="#0066CC" stroke="white" stroke-width="1"/>
<circle cx="345" cy="130" r="4" fill="#0066CC" stroke="white" stroke-width="1"/>
<path d="M195,100 Q225,82 195,310" fill="none" stroke="#CC6600" stroke-width="2.5" stroke-linecap="round" stroke-dasharray="6,3"/>
<circle cx="195" cy="100" r="4" fill="#CC6600" stroke="white" stroke-width="1"/>
<circle cx="195" cy="310" r="4" fill="#CC6600" stroke="white" stroke-width="1"/>
<line x1="375" y1="70" x2="375" y2="96" stroke="#666" stroke-width="1.5"/>
<rect x="370" y="95" width="10" height="10" fill="#4A90D9" rx="1" stroke="#333" stroke-width="0.5"/>
<line x1="375" y1="105" x2="375" y2="130" stroke="#666" stroke-width="1.5"/>
<text x="387" y="100" class="comp">100n V+</text>
<path d="M405,70 Q360,52 315,250" fill="none" stroke="#009933" stroke-width="2.5" stroke-linecap="round" stroke-dasharray="6,3"/>
<circle cx="405" cy="70" r="4" fill="#009933" stroke="white" stroke-width="1"/>
<circle cx="315" cy="250" r="4" fill="#009933" stroke="white" stroke-width="1"/>
<path d="M435,70 Q375,52 315,160" fill="none" stroke="#CC0066" stroke-width="2.5" stroke-linecap="round" stroke-dasharray="6,3"/>
<circle cx="435" cy="70" r="4" fill="#CC0066" stroke="white" stroke-width="1"/>
<circle cx="315" cy="160" r="4" fill="#CC0066" stroke="white" stroke-width="1"/>
<path d="M255,70 Q240,52 225,220" fill="none" stroke="#6600CC" stroke-width="2.5" stroke-linecap="round" stroke-dasharray="6,3"/>
<circle cx="255" cy="70" r="4" fill="#6600CC" stroke="white" stroke-width="1"/>
<circle cx="225" cy="220" r="4" fill="#6600CC" stroke="white" stroke-width="1"/>
<path d="M225,70 Q255,52 225,130" fill="none" stroke="#CC9900" stroke-width="2.5" stroke-linecap="round" stroke-dasharray="6,3"/>
<circle cx="225" cy="70" r="4" fill="#CC9900" stroke="white" stroke-width="1"/>
<circle cx="225" cy="130" r="4" fill="#CC9900" stroke="white" stroke-width="1"/>
<path d="M225,160 Q255,142 225,280" fill="none" stroke="#0066CC" stroke-width="2.5" stroke-linecap="round" stroke-dasharray="6,3"/>
<circle cx="225" cy="160" r="4" fill="#0066CC" stroke="white" stroke-width="1"/>
<circle cx="225" cy="280" r="4" fill="#0066CC" stroke="white" stroke-width="1"/>
<rect x="99" y="184" width="12" height="12" fill="#666" rx="2" stroke="#333" stroke-width="0.5"/>
<text x="105" y="180" class="comp">SQ-IN</text>
<line x1="135" y1="190" x2="161" y2="190" stroke="#666" stroke-width="1.5"/>
<rect x="159" y="185" width="12" height="10" fill="#4A90D9" rx="1" stroke="#333" stroke-width="0.5"/>
<line x1="169" y1="190" x2="195" y2="190" stroke="#666" stroke-width="1.5"/>
<text x="165" y="181" class="comp">100n</text>
<line x1="190" y1="185" x2="200" y2="195" class="cut-x"/>
<line x1="200" y1="185" x2="190" y2="195" class="cut-x"/>
<path d="M195,190 Q210,172 225,190" fill="none" stroke="#CC6600" stroke-width="2.5" stroke-linecap="round" stroke-dasharray="6,3"/>
<circle cx="195" cy="190" r="4" fill="#CC6600" stroke="white" stroke-width="1"/>
<circle cx="225" cy="190" r="4" fill="#CC6600" stroke="white" stroke-width="1"/>
<path d="M225,250 Q285,232 345,250" fill="none" stroke="#009933" stroke-width="2.5" stroke-linecap="round" stroke-dasharray="6,3"/>
<circle cx="225" cy="250" r="4" fill="#009933" stroke="white" stroke-width="1"/>
<circle cx="345" cy="250" r="4" fill="#009933" stroke="white" stroke-width="1"/>
<line x1="345" y1="250" x2="371" y2="250" stroke="#666" stroke-width="1.5"/>
<rect x="369" y="245" width="12" height="10" fill="#8B4513" rx="1" stroke="#333" stroke-width="0.5"/>
<line x1="379" y1="250" x2="405" y2="250" stroke="#666" stroke-width="1.5"/>
<text x="375" y="241" class="comp">1µF</text>
<text x="349" y="246" class="pin">+</text>
<circle cx="435" cy="222" r="14" fill="#C0C0C0" stroke="#888" stroke-width="1.5"/>
<circle cx="435" cy="222" r="3" fill="#666"/>
<text x="435" y="204" class="comp">Sub Mix</text>
<text x="435" y="223" class="comp" font-size="9">10k log</text>
<line x1="405" y1="236" x2="405" y2="250" stroke="#888" stroke-width="1.5"/>
<line x1="435" y1="236" x2="435" y2="250" stroke="#888" stroke-width="1.5"/>
<line x1="465" y1="236" x2="465" y2="250" stroke="#888" stroke-width="1.5"/>
<circle cx="405" cy="250" r="3" fill="#888"/>
<circle cx="435" cy="250" r="3" fill="#D80"/>
<circle cx="465" cy="250" r="3" fill="#888"/>
<text x="405" y="262" class="comp" font-size="9">GND</text>
<text x="435" y="262" class="comp" font-size="9" fill="#D80">W→VCF</text>
<text x="465" y="262" class="comp" font-size="9">OUT</text>
<rect x="399" y="304" width="72" height="12" fill="#666" rx="2" stroke="#333" stroke-width="0.5"/>
<text x="435" y="300" class="comp">SPDT</text>
<rect x="409" y="323" width="120" height="34" fill="white" stroke="#0066CC" stroke-width="1.5" rx="3" opacity="0.95"/>
<text x="415" y="338" font-size="8" fill="#0066CC" font-family="sans-serif" font-weight="bold">SPDT in series</text>
<text x="415" y="351" font-size="8" fill="#0066CC" font-family="sans-serif" >with wiper → mixer</text>
<text x="90" y="395" class="legend-title">Legend</text>
<rect x="90" y="410" width="14" height="10" fill="#2D2D2D" rx="2"/>
<text x="110" y="416" class="legend-text">74HC74 (DIP-14)</text>
<rect x="285" y="410" width="14" height="10" fill="#4A90D9" rx="2"/>
<text x="305" y="416" class="legend-text">Ceramic 100nF</text>
<rect x="90" y="428" width="14" height="10" fill="#8B4513" rx="2"/>
<text x="110" y="434" class="legend-text">Electro 1µF</text>
<circle cx="292" cy="433" r="5" fill="#C0C0C0"/>
<text x="305" y="434" class="legend-text">Panel pot (off-board)</text>
<line x1="92" y1="447" x2="102" y2="455" stroke="#FF0000" stroke-width="2"/>
<line x1="102" y1="447" x2="92" y2="455" stroke="#FF0000" stroke-width="2"/>
<text x="110" y="452" class="legend-text">Track cut</text>
<line x1="285" y1="451" x2="299" y2="451" stroke="#0066CC" stroke-width="2.5"/>
<text x="305" y="452" class="legend-text">Jumper wire</text>
</svg>