<?xml version="1.0" encoding="UTF-8"?>
<svg xmlns="http://www.w3.org/2000/svg" viewBox="0 0 700 650" width="700" height="650">
<defs>
  <filter id="textshadow" x="-20%" y="-20%" width="140%" height="140%">
    <feFlood flood-color="white" flood-opacity="0.9" result="bg"/>
    <feMorphology in="SourceGraphic" operator="dilate" radius="1.5" result="dilated"/>
    <feComposite in="bg" in2="dilated" operator="in" result="shadow"/>
    <feMerge><feMergeNode in="shadow"/><feMergeNode in="SourceGraphic"/></feMerge>
  </filter>
  <style>
    .title { font: bold 16px "SF Mono", Consolas, monospace; fill: #1a1a1a; filter: url(#textshadow); }
    .subtitle { font: 11px "SF Mono", Consolas, monospace; fill: #555; filter: url(#textshadow); }
    .label { font: bold 10px "SF Mono", Consolas, monospace; fill: #1a1a1a; filter: url(#textshadow); }
    .value { font: 9px "SF Mono", Consolas, monospace; fill: #555; filter: url(#textshadow); }
    .pin { font: 8px "SF Mono", Consolas, monospace; fill: #555; filter: url(#textshadow); }
    .anno { font: 9px "SF Mono", Consolas, monospace; fill: #0066CC; filter: url(#textshadow); }
    .wire { stroke: #1a1a1a; stroke-width: 1.5; fill: none; transition: all 0.2s; cursor: pointer; }
    .wire:hover { stroke: #ff6600; stroke-width: 2.5; filter: drop-shadow(0 0 3px #ff6600); }
    .wire-thick { stroke: #1a1a1a; stroke-width: 2.5; fill: none; transition: all 0.2s; cursor: pointer; }
    .wire-thick:hover { stroke: #ff6600; stroke-width: 3.5; filter: drop-shadow(0 0 3px #ff6600); }
    .component { stroke: #1a1a1a; stroke-width: 1.5; fill: none; }
    .filled { fill: #1a1a1a; }
    .junction { fill: #0066CC; }
  </style>
  <marker id="arrow" markerWidth="8" markerHeight="6" refX="7" refY="3" orient="auto">
    <polygon points="0 0, 8 3, 0 6" fill="#0066CC"/>
  </marker>
</defs>
<rect width="700" height="650" fill="#FEFEFE"/>
<text x="350" y="25" class="title" text-anchor="middle">Full Vactrol Driver</text>
<text x="350" y="42" class="subtitle" text-anchor="middle">CV Buffer + LED Current Control for Resonance (RP13)</text>
<text x="50" y="50" class="label">CV Input (DB-9 B Pin 3)</text>
<circle cx="80" cy="80" r="8" class="component"/>
<line x1="80" y1="80" x2="100" y2="80" class="wire"/>
<text x="80" y="102" class="label" text-anchor="middle">Res CV</text>
<line x1="100" y1="80" x2="140" y2="80" class="wire"/>
<path d="M95,80 l5,-6 l5,6 l5,-6 l5,6 l5,-6 l5,6 l5,-6 l5,6 l5,0" class="component"/>
<text x="120" y="102" class="value" text-anchor="middle">100kΩ</text>
<line x1="140" y1="80" x2="180" y2="80" class="wire"/>
<path d="M200,80 l5,-8 l5,8 l5,-8 l5,8 l5,-8 l5,8" class="component"/>
<line x1="220" y1="50" x2="220" y2="70" class="wire"/>
<polygon points="220,70 216,62 224,62" class="filled"/>
<text x="220" y="45" class="label" text-anchor="middle">ATTEN</text>
<text x="220" y="100" class="value" text-anchor="middle">100k</text>
<line x1="220" y1="50" x2="220" y2="30" class="wire"/>
<line x1="220" y1="30" x2="220" y2="42" class="wire"/>
<line x1="210" y1="42" x2="230" y2="42" class="wire" stroke-width="2"/>
<line x1="214" y1="46" x2="226" y2="46" class="wire" stroke-width="1.5"/>
<line x1="220" y1="110" x2="220" y2="130" class="wire"/>
<line x1="220" y1="130" x2="220" y2="142" class="wire"/>
<line x1="210" y1="142" x2="230" y2="142" class="wire" stroke-width="2"/>
<line x1="214" y1="146" x2="226" y2="146" class="wire" stroke-width="1.5"/>
<text x="300" y="50" class="label">Voltage Buffer</text>
<polygon points="320,70 320,130 380,100" class="component"/>
<text x="350" y="105" class="label" text-anchor="middle" font-size="9">TL072</text>
<text x="317" y="82" class="pin" text-anchor="end">-</text>
<text x="317" y="118" class="pin" text-anchor="end">+</text>
<line x1="350" y1="70" x2="350" y2="60" class="component"/>
<text x="355" y="65" class="pin" font-size="7">V+</text>
<line x1="350" y1="130" x2="350" y2="140" class="component"/>
<text x="355" y="138" class="pin" font-size="7">V-</text>
<line x1="220" y1="80" x2="310" y2="98" class="wire"/>
<line x1="350" y1="100" x2="390" y2="100" class="wire"/>
<line x1="390" y1="100" x2="390" y2="60" class="wire"/>
<line x1="390" y1="60" x2="320" y2="60" class="wire"/>
<line x1="320" y1="60" x2="320" y2="98" class="wire"/>
<line x1="310" y1="102" x2="310" y2="160" class="wire"/>
<line x1="310" y1="160" x2="310" y2="172" class="wire"/>
<line x1="300" y1="172" x2="320" y2="172" class="wire" stroke-width="2"/>
<line x1="304" y1="176" x2="316" y2="176" class="wire" stroke-width="1.5"/>
<text x="480" y="50" class="label">Current Control</text>
<line x1="390" y1="100" x2="450" y2="100" class="wire"/>
<path d="M455,100 l5,-6 l5,6 l5,-6 l5,6 l5,-6 l5,6 l5,-6 l5,6 l5,0" class="component"/>
<text x="480" y="122" class="value" text-anchor="middle">1kΩ</text>
<line x1="510" y1="100" x2="550" y2="100" class="wire"/>
<line x1="570" y1="140" x2="590" y2="140" class="component"/>
<line x1="590" y1="140" x2="605" y2="120" class="component"/>
<line x1="590" y1="140" x2="605" y2="160" class="component"/>
<polygon points="605,160 600,153 608,155" class="filled"/>
<text x="590" y="185" class="label" text-anchor="middle">Q4</text>
<text x="565" y="143" class="pin" text-anchor="end">B</text>
<text x="610" y="120" class="pin" text-anchor="start">C</text>
<text x="610" y="165" class="pin" text-anchor="start">E</text>
<line x1="550" y1="100" x2="575" y2="140" class="wire"/>
<line x1="590" y1="165" x2="590" y2="200" class="wire"/>
<path d="M590,165 l-6,5 l6,5 l-6,5 l6,5 l-6,5 l6,5 l-6,5 l6,5 l0,5" class="component"/>
<text x="602" y="190" class="value">1kΩ</text>
<line x1="590" y1="215" x2="590" y2="227" class="wire"/>
<line x1="580" y1="227" x2="600" y2="227" class="wire" stroke-width="2"/>
<line x1="584" y1="231" x2="596" y2="231" class="wire" stroke-width="1.5"/>
<text x="500" y="280" class="label">Vactrol LED</text>
<line x1="575" y1="115" x2="575" y2="80" class="wire"/>
<line x1="575" y1="80" x2="500" y2="80" class="wire"/>
<polygon points="500,60 500,100 530,80" fill="#FF0000" stroke="#CC0000" stroke-width="1"/>
<line x1="530" y1="60" x2="530" y2="100" stroke="#CC0000" stroke-width="2"/>
<line x1="530" y1="80" x2="600" y2="80" class="wire"/>
<line x1="620" y1="80" x2="620" y2="68" class="wire" stroke="#D44" stroke-width="2"/>
<text x="624" y="74" class="value" fill="#D44">+12V</text>
<text x="50" y="350" class="label">Vactrol LDR Side</text>
<rect x="80" y="370" width="60" height="40" fill="#8B7355" stroke="#5D4E37" stroke-width="2" rx="3"/>
<text x="110" y="395" class="value" font-size="8" text-anchor="middle" fill="#FFF">LDR</text>
<line x1="140" y1="380" x2="200" y2="380" class="wire"/>
<text x="210" y="383" class="value" font-size="9">→ RP13 (Resonance Pot)</text>
<line x1="140" y1="400" x2="200" y2="400" class="wire"/>
<text x="210" y="403" class="value" font-size="9">→ Filter CV Node</text>
<rect x="50" y="450" width="600" height="170" fill="#E8F5E9" stroke="#4CAF50" stroke-width="1" rx="4"/>
<text x="350" y="475" class="label" text-anchor="middle" fill="#2E7D32">How the Vactrol Driver Works</text>
<text x="70" y="495" class="label" font-size="9" fill="#1B5E20">1. CV Input (0-10V):</text>
<text x="200" y="495" class="value" font-size="9">From DB-9 B Pin 3, attenuated by 100k pot to 0-5V range</text>
<text x="70" y="513" class="label" font-size="9" fill="#1B5E20">2. Buffer Stage:</text>
<text x="200" y="513" class="value" font-size="9">TL072 unity gain buffer isolates CV source from driver circuit</text>
<text x="70" y="531" class="label" font-size="9" fill="#1B5E20">3. Current Control:</text>
<text x="200" y="531" class="value" font-size="9">NPN transistor acts as variable current sink, controlled by base voltage</text>
<text x="70" y="549" class="label" font-size="9" fill="#1B5E20">4. LED Brightness:</text>
<text x="200" y="549" class="value" font-size="9">Higher CV → More base current → More LED current → Brighter LED</text>
<text x="70" y="567" class="label" font-size="9" fill="#1B5E20">5. LDR Response:</text>
<text x="200" y="567" class="value" font-size="9">Brighter LED → Lower LDR resistance → More resonance in filter</text>
<text x="70" y="585" class="label" font-size="9" fill="#1B5E20">6. 1kΩ Resistors:</text>
<text x="200" y="585" class="value" font-size="9">Limit LED current to ~5mA max (safe for LDR and long LED life)</text></svg>