<?xml version="1.0" encoding="UTF-8"?>
<svg xmlns="http://www.w3.org/2000/svg" viewBox="0 0 700 600" width="700" height="600">
<defs>
  <filter id="textshadow" x="-20%" y="-20%" width="140%" height="140%">
    <feFlood flood-color="white" flood-opacity="0.9" result="bg"/>
    <feMorphology in="SourceGraphic" operator="dilate" radius="1.5" result="dilated"/>
    <feComposite in="bg" in2="dilated" operator="in" result="shadow"/>
    <feMerge><feMergeNode in="shadow"/><feMergeNode in="SourceGraphic"/></feMerge>
  </filter>
  <style>
    .title { font: bold 16px "SF Mono", Consolas, monospace; fill: #1a1a1a; filter: url(#textshadow); }
    .subtitle { font: 11px "SF Mono", Consolas, monospace; fill: #555; filter: url(#textshadow); }
    .label { font: bold 10px "SF Mono", Consolas, monospace; fill: #1a1a1a; filter: url(#textshadow); }
    .value { font: 9px "SF Mono", Consolas, monospace; fill: #555; filter: url(#textshadow); }
    .pin { font: 8px "SF Mono", Consolas, monospace; fill: #555; filter: url(#textshadow); }
    .anno { font: 9px "SF Mono", Consolas, monospace; fill: #0066CC; filter: url(#textshadow); }
    .wire { stroke: #1a1a1a; stroke-width: 1.5; fill: none; }
    .wire-thick { stroke: #1a1a1a; stroke-width: 2.5; fill: none; }
    .component { stroke: #1a1a1a; stroke-width: 1.5; fill: none; }
    .filled { fill: #1a1a1a; }
    .junction { fill: #0066CC; }
  </style>
  <marker id="arrow" markerWidth="8" markerHeight="6" refX="7" refY="3" orient="auto">
    <polygon points="0 0, 8 3, 0 6" fill="#0066CC"/>
  </marker>
</defs>
<rect width="700" height="600" fill="#FEFEFE"/>
<text x="350" y="25" class="title" text-anchor="middle">Internal Wiring — MicroBrute to Breakout</text>
<text x="350" y="42" class="subtitle" text-anchor="middle">Test point taps and power connections</text>
<rect x="50" y="80" width="120" height="440" fill="#E8D5A3" stroke="#B8722D" stroke-width="2" rx="4"/>
<text x="110" y="60" class="label" text-anchor="middle">MicroBrute PCB</text>
<text x="110" y="540" class="label" text-anchor="middle" font-size="9">Rear Board</text>
<rect x="530" y="80" width="120" height="440" fill="#E8D5A3" stroke="#B8722D" stroke-width="2" rx="4"/>
<text x="590" y="60" class="label" text-anchor="middle">Breakout PCB</text>
<text x="115" y="123" class="value" font-size="8" text-anchor="end">TP94 Saw</text>
<line x1="120" y1="120" x2="550" y2="120" class="wire"/>
<path d="M310,120 l5,-6 l5,6 l5,-6 l5,6 l5,-6 l5,6 l5,-6 l5,6 l5,0" class="component"/>
<text x="335" y="142" class="value" text-anchor="middle">1kΩ</text>
<line x1="550" y1="120" x2="580" y2="120" class="wire"/>
<text x="585" y="123" class="value" font-size="8">J1-1</text>
<text x="115" y="153" class="value" font-size="8" text-anchor="end">TP93 Square</text>
<line x1="120" y1="150" x2="550" y2="150" class="wire"/>
<path d="M310,150 l5,-6 l5,6 l5,-6 l5,6 l5,-6 l5,6 l5,-6 l5,6 l5,0" class="component"/>
<text x="335" y="172" class="value" text-anchor="middle">1kΩ</text>
<line x1="550" y1="150" x2="580" y2="150" class="wire"/>
<text x="585" y="153" class="value" font-size="8">J1-2</text>
<text x="115" y="183" class="value" font-size="8" text-anchor="end">TP30 Mix</text>
<line x1="120" y1="180" x2="550" y2="180" class="wire"/>
<path d="M310,180 l5,-6 l5,6 l5,-6 l5,6 l5,-6 l5,6 l5,-6 l5,6 l5,0" class="component"/>
<text x="335" y="202" class="value" text-anchor="middle">1kΩ</text>
<line x1="550" y1="180" x2="580" y2="180" class="wire"/>
<text x="585" y="183" class="value" font-size="8">J1-4</text>
<text x="115" y="213" class="value" font-size="8" text-anchor="end">TP19 VCF</text>
<line x1="120" y1="210" x2="550" y2="210" class="wire"/>
<path d="M310,210 l5,-6 l5,6 l5,-6 l5,6 l5,-6 l5,6 l5,-6 l5,6 l5,0" class="component"/>
<text x="335" y="232" class="value" text-anchor="middle">1kΩ</text>
<line x1="550" y1="210" x2="580" y2="210" class="wire"/>
<text x="585" y="213" class="value" font-size="8">J1-3</text>
<text x="115" y="243" class="value" font-size="8" text-anchor="end">TP124 Tri</text>
<line x1="120" y1="240" x2="550" y2="240" class="wire"/>
<path d="M310,240 l5,-6 l5,6 l5,-6 l5,6 l5,-6 l5,6 l5,-6 l5,6 l5,0" class="component"/>
<text x="335" y="262" class="value" text-anchor="middle">1kΩ</text>
<line x1="550" y1="240" x2="580" y2="240" class="wire"/>
<text x="585" y="243" class="value" font-size="8">J1-5</text>
<text x="115" y="283" class="value" font-size="8" text-anchor="end">TP83 Gate</text>
<line x1="120" y1="280" x2="550" y2="280" class="wire"/>
<path d="M310,280 l5,-6 l5,6 l5,-6 l5,6 l5,-6 l5,6 l5,-6 l5,6 l5,0" class="component"/>
<text x="335" y="302" class="value" text-anchor="middle">10kΩ</text>
<line x1="550" y1="280" x2="580" y2="280" class="wire"/>
<text x="585" y="283" class="value" font-size="8">J2-1</text>
<text x="115" y="323" class="value" font-size="8" text-anchor="end">Env (matrix)</text>
<line x1="120" y1="320" x2="550" y2="320" class="wire"/>
<path d="M310,320 l5,-6 l5,6 l5,-6 l5,6 l5,-6 l5,6 l5,-6 l5,6 l5,0" class="component"/>
<text x="335" y="342" class="value" text-anchor="middle">10kΩ</text>
<line x1="550" y1="320" x2="580" y2="320" class="wire"/>
<text x="585" y="323" class="value" font-size="8">J3-1</text>
<text x="115" y="353" class="value" font-size="8" text-anchor="end">LFO (matrix)</text>
<line x1="120" y1="350" x2="550" y2="350" class="wire"/>
<path d="M310,350 l5,-6 l5,6 l5,-6 l5,6 l5,-6 l5,6 l5,-6 l5,6 l5,0" class="component"/>
<text x="335" y="372" class="value" text-anchor="middle">10kΩ</text>
<line x1="550" y1="350" x2="580" y2="350" class="wire"/>
<text x="585" y="353" class="value" font-size="8">J3-2</text>
<text x="110" y="410" class="label" font-size="10" fill="#D44">Power Taps</text>
<text x="115" y="433" class="value" font-size="8" text-anchor="end">TP70 +12V</text>
<line x1="120" y1="430" x2="500" y2="430" class="wire"/>
<line x1="120" y1="430" x2="500" y2="430" stroke="Red" stroke-width="2"/>
<text x="530" y="433" class="value" font-size="8">Power header +12V</text>
<text x="115" y="458" class="value" font-size="8" text-anchor="end">TP71 -12V</text>
<line x1="120" y1="455" x2="500" y2="455" class="wire"/>
<line x1="120" y1="455" x2="500" y2="455" stroke="#44D" stroke-width="2"/>
<text x="530" y="458" class="value" font-size="8">Power header -12V</text>
<text x="115" y="483" class="value" font-size="8" text-anchor="end">TP72 GND</text>
<line x1="120" y1="480" x2="500" y2="480" class="wire"/>
<line x1="120" y1="480" x2="500" y2="480" stroke="#4A4" stroke-width="2"/>
<text x="530" y="483" class="value" font-size="8">Power header GND</text>
<text x="350" y="570" class="value" text-anchor="middle">All signals: 24AWG | Power: 22AWG</text></svg>