<?xml version="1.0" encoding="UTF-8"?>
<svg xmlns="http://www.w3.org/2000/svg" viewBox="0 0 1000 700" width="1000" height="700">
<defs>
  <style>
    .title { font: bold 16px "SF Mono", Consolas, monospace; fill: #1a1a1a; }
    .subtitle { font: 11px "SF Mono", Consolas, monospace; fill: #555; }
    .label { font: bold 10px "SF Mono", Consolas, monospace; fill: #1a1a1a; }
    .value { font: 9px "SF Mono", Consolas, monospace; fill: #555; }
    .pin { font: 8px "SF Mono", Consolas, monospace; fill: #555; }
    .anno { font: 9px "SF Mono", Consolas, monospace; fill: #0066CC; }
    .wire { stroke: #1a1a1a; stroke-width: 1.5; fill: none; }
    .wire-thick { stroke: #1a1a1a; stroke-width: 2.5; fill: none; }
    .component { stroke: #1a1a1a; stroke-width: 1.5; fill: none; }
    .filled { fill: #1a1a1a; }
    .junction { fill: #0066CC; }
  </style>
  <marker id="arrow" markerWidth="8" markerHeight="6" refX="7" refY="3" orient="auto">
    <polygon points="0 0, 8 3, 0 6" fill="#0066CC"/>
  </marker>
</defs>
<rect width="1000" height="700" fill="#FEFEFE"/>
<text x="500" y="25" class="title" text-anchor="middle">MACROBRUTE System Wiring</text>
<text x="500" y="42" class="subtitle" text-anchor="middle">Complete signal flow from MicroBrute to Expander</text>
<rect x="40" y="100" width="120" height="80" fill="#E8D5A3" stroke="#B8722D" stroke-width="2" rx="4"/>
<text x="100" y="135" class="label" text-anchor="middle">MicroBrute</text>
<text x="100" y="153" class="label" text-anchor="middle">PCB</text>
<rect x="240" y="100" width="120" height="80" fill="#E8D5A3" stroke="#B8722D" stroke-width="2" rx="4"/>
<text x="300" y="135" class="label" text-anchor="middle">Breakout</text>
<text x="300" y="153" class="label" text-anchor="middle">PCB</text>
<rect x="440" y="100" width="120" height="80" fill="#E8D5A3" stroke="#B8722D" stroke-width="2" rx="4"/>
<text x="500" y="135" class="label" text-anchor="middle">DB-9 A</text>
<text x="500" y="153" class="label" text-anchor="middle">(Rear)</text>
<rect x="590" y="100" width="120" height="80" fill="#E8D5A3" stroke="#B8722D" stroke-width="2" rx="4"/>
<text x="650" y="135" class="label" text-anchor="middle">Cable</text>
<rect x="790" y="100" width="120" height="80" fill="#E8D5A3" stroke="#B8722D" stroke-width="2" rx="4"/>
<text x="850" y="135" class="label" text-anchor="middle">Expander</text>
<line x1="100" y1="220" x2="300" y2="220" class="wire"/>
<path d="M175,220 l5,-6 l5,6 l5,-6 l5,6 l5,-6 l5,6 l5,-6 l5,6 l5,0" class="component"/>
<text x="200" y="242" class="value" text-anchor="middle">1kΩ</text>
<text x="110" y="212" class="value">TP94 Saw</text>
<line x1="300" y1="220" x2="500" y2="220" class="wire"/>
<rect x="375.0" y="205.0" width="50" height="30" class="component" fill="#f5f5f5"/>
<text x="400" y="220" class="label" text-anchor="middle">Buf</text>
<line x1="500" y1="220" x2="650" y2="220" class="wire"/>
<line x1="650" y1="220" x2="790" y2="220" class="wire"/>
<circle cx="810" cy="220" r="8" class="component"/>
<line x1="810" y1="220" x2="830" y2="220" class="wire"/>
<text x="810" y="242" class="label" text-anchor="middle">Saw</text>
<line x1="100" y1="250" x2="300" y2="250" class="wire"/>
<path d="M175,250 l5,-6 l5,6 l5,-6 l5,6 l5,-6 l5,6 l5,-6 l5,6 l5,0" class="component"/>
<text x="200" y="272" class="value" text-anchor="middle">1kΩ</text>
<text x="110" y="242" class="value">TP93 Sqr</text>
<line x1="300" y1="250" x2="500" y2="250" class="wire"/>
<rect x="375.0" y="235.0" width="50" height="30" class="component" fill="#f5f5f5"/>
<text x="400" y="250" class="label" text-anchor="middle">Buf</text>
<line x1="500" y1="250" x2="650" y2="250" class="wire"/>
<line x1="650" y1="250" x2="790" y2="250" class="wire"/>
<circle cx="810" cy="250" r="8" class="component"/>
<line x1="810" y1="250" x2="830" y2="250" class="wire"/>
<text x="810" y="272" class="label" text-anchor="middle">Sqr</text>
<line x1="100" y1="280" x2="300" y2="280" class="wire"/>
<path d="M175,280 l5,-6 l5,6 l5,-6 l5,6 l5,-6 l5,6 l5,-6 l5,6 l5,0" class="component"/>
<text x="200" y="302" class="value" text-anchor="middle">1kΩ</text>
<text x="110" y="272" class="value">TP30 Mix</text>
<line x1="300" y1="280" x2="500" y2="280" class="wire"/>
<rect x="375.0" y="265.0" width="50" height="30" class="component" fill="#f5f5f5"/>
<text x="400" y="280" class="label" text-anchor="middle">Buf</text>
<line x1="500" y1="280" x2="650" y2="280" class="wire"/>
<line x1="650" y1="280" x2="790" y2="280" class="wire"/>
<circle cx="810" cy="280" r="8" class="component"/>
<line x1="810" y1="280" x2="830" y2="280" class="wire"/>
<text x="810" y="302" class="label" text-anchor="middle">Mix</text>
<line x1="100" y1="310" x2="300" y2="310" class="wire"/>
<path d="M175,310 l5,-6 l5,6 l5,-6 l5,6 l5,-6 l5,6 l5,-6 l5,6 l5,0" class="component"/>
<text x="200" y="332" class="value" text-anchor="middle">1kΩ</text>
<text x="110" y="302" class="value">TP19 VCF</text>
<line x1="300" y1="310" x2="500" y2="310" class="wire"/>
<rect x="375.0" y="295.0" width="50" height="30" class="component" fill="#f5f5f5"/>
<text x="400" y="310" class="label" text-anchor="middle">Buf</text>
<line x1="500" y1="310" x2="650" y2="310" class="wire"/>
<line x1="650" y1="310" x2="790" y2="310" class="wire"/>
<circle cx="810" cy="310" r="8" class="component"/>
<line x1="810" y1="310" x2="830" y2="310" class="wire"/>
<text x="810" y="332" class="label" text-anchor="middle">VCF</text>
<line x1="100" y1="360" x2="300" y2="360" class="wire"/>
<text x="110" y="352" class="value">Pitch CV</text>
<line x1="300" y1="360" x2="500" y2="360" class="wire"/>
<rect x="375.0" y="345.0" width="50" height="30" class="component" fill="#f5f5f5"/>
<text x="400" y="360" class="label" text-anchor="middle">Buf</text>
<line x1="500" y1="360" x2="650" y2="360" class="wire"/>
<line x1="650" y1="360" x2="790" y2="360" class="wire"/>
<circle cx="810" cy="360" r="8" class="component"/>
<line x1="810" y1="360" x2="830" y2="360" class="wire"/>
<text x="810" y="382" class="label" text-anchor="middle">CV</text>
<line x1="100" y1="390" x2="300" y2="390" class="wire"/>
<path d="M175,390 l5,-6 l5,6 l5,-6 l5,6 l5,-6 l5,6 l5,-6 l5,6 l5,0" class="component"/>
<text x="200" y="412" class="value" text-anchor="middle">10kΩ</text>
<text x="110" y="382" class="value">TP83 Gate</text>
<line x1="300" y1="390" x2="500" y2="390" class="wire"/>
<rect x="375.0" y="375.0" width="50" height="30" class="component" fill="#f5f5f5"/>
<text x="400" y="390" class="label" text-anchor="middle">Buf</text>
<line x1="500" y1="390" x2="650" y2="390" class="wire"/>
<line x1="650" y1="390" x2="790" y2="390" class="wire"/>
<circle cx="810" cy="390" r="8" class="component"/>
<line x1="810" y1="390" x2="830" y2="390" class="wire"/>
<text x="810" y="412" class="label" text-anchor="middle">Gate</text>
<text x="500" y="550" class="label" text-anchor="middle">Power Distribution</text>
<line x1="400" y1="580" x2="400" y2="568" class="wire" stroke="#D44" stroke-width="2"/>
<text x="404" y="574" class="value" fill="#D44">+12V</text>
<line x1="500" y1="580" x2="500" y2="568" class="wire" stroke="#D44" stroke-width="2"/>
<text x="504" y="574" class="value" fill="#D44">-12V</text>
<line x1="600" y1="620" x2="600" y2="632" class="wire"/>
<line x1="590" y1="632" x2="610" y2="632" class="wire" stroke-width="2"/>
<line x1="594" y1="636" x2="606" y2="636" class="wire" stroke-width="1.5"/></svg>